# xmcd
#
# Track frame offsets:
# 150
# 18314
# 38851
# 61019
# 84608
# 102802
# 120800
# 139905
# 160789
# 180255
# 200506
# 220842
#
# Disc length: 3208 seconds
#
#
# Revision: 2
# Processed by: cddbd v1.5.2PL0 Copyright (c) Steve Scherf et al.
# Submitted via: FreeRIP 2.90 
#
DISCID=910c860c
DTITLE=Alegria - Somos parte de tu vida
DYEAR=1999
DGENRE=Tropical
TTITLE0=Tarjetita
TTITLE1=Parte de tu vida
TTITLE2=Si me dejas ahora
TTITLE3=Vuelve a mi
TTITLE4=Sin rumbo
TTITLE5=Mala mujer
TTITLE6=Chuquicamata
TTITLE7=Me amas
TTITLE8=Aquella noche
TTITLE9=No podré olvidarte
TTITLE10=Que tristeza
TTITLE11=Mujeres y cerveza
EXTD=
EXTT0=
EXTT1=
EXTT2=
EXTT3=
EXTT4=
EXTT5=
EXTT6=
EXTT7=
EXTT8=
EXTT9=
EXTT10=
EXTT11=
PLAYORDER=
